<?xml version="1.0" encoding="UTF-8" standalone="no"?>
<svg width="58px" height="24px" viewBox="0 0 58 24" version="1.1" xmlns="http://www.w3.org/2000/svg" xmlns:xlink="http://www.w3.org/1999/xlink" xmlns:sketch="http://www.bohemiancoding.com/sketch/ns">
    <!-- Generator: Sketch 3.3.3 (12081) - http://www.bohemiancoding.com/sketch -->
    <title>button-copy-link</title>
    <desc>Created with Sketch.</desc>
    <defs></defs>
    <g id="Page-1" stroke="none" stroke-width="1" fill="none" fill-rule="evenodd" sketch:type="MSPage">
        <g id="button-copy-link" sketch:type="MSLayerGroup">
            <path d="M53.7,23.5 L4.5,23.5 C2.3,23.5 0.5,21.7 0.5,19.5 L0.5,4.6 C0.5,2.4 2.3,0.6 4.5,0.6 L53.7,0.6 C55.9,0.6 57.7,2.4 57.7,4.6 L57.7,19.5 C57.7,21.7 55.9,23.5 53.7,23.5 L53.7,23.5 Z" id="Shape" fill="#333333" sketch:type="MSShapeGroup"></path>
            <path d="M21.4,18.8 L19.8,20.3 C19.2,20.9 18.5,21.2 17.6,21.2 C16.8,21.2 16,20.9 15.4,20.3 L13.2,18.1 C12.6,17.5 12.3,16.8 12.3,15.9 C12.3,15.1 12.6,14.3 13.2,13.7 L12.3,12.8 C11.7,13.4 10.9,13.7 10.1,13.7 C9.3,13.7 8.5,13.4 7.9,12.8 L5.7,10.6 C5.1,10 4.8,9.3 4.8,8.4 C4.8,7.6 5.1,6.8 5.7,6.2 L7.3,4.7 C7.9,4.1 8.6,3.8 9.5,3.8 C10.3,3.8 11.1,4.1 11.7,4.7 L13.9,6.9 C14.5,7.5 14.8,8.2 14.8,9.1 C14.8,9.9 14.5,10.7 13.9,11.3 L14.8,12.2 C15.4,11.6 16.2,11.3 17,11.3 C17.8,11.3 18.6,11.6 19.2,12.2 L21.4,14.4 C22,15 22.3,15.7 22.3,16.6 C22.3,17.5 21.9,18.3 21.4,18.8 L21.4,18.8 Z M12.5,8.5 L10.3,6.3 C10.1,6.1 9.8,6 9.6,6 C9.4,6 9.1,6.1 8.9,6.3 L7.3,7.8 C7.1,8 7,8.2 7,8.5 C7,8.8 7.1,9 7.3,9.2 L9.5,11.4 C9.7,11.6 10,11.7 10.2,11.7 C10.5,11.7 10.8,11.6 11,11.4 C10.6,11 10.2,10.8 10.2,10.2 C10.2,9.6 10.7,9.2 11.2,9.2 C11.7,9.2 12,9.6 12.4,10 C12.6,9.8 12.7,9.5 12.7,9.2 C12.8,8.9 12.7,8.7 12.5,8.5 L12.5,8.5 Z M19.9,15.9 L17.7,13.7 C17.5,13.5 17.2,13.4 17,13.4 C16.7,13.4 16.4,13.5 16.2,13.7 C16.6,14.1 17,14.3 17,14.9 C17,15.5 16.5,15.9 16,15.9 C15.5,15.9 15.2,15.5 14.8,15.1 C14.6,15.3 14.5,15.6 14.5,15.9 C14.5,16.2 14.6,16.4 14.8,16.6 L17,18.8 C17.2,19 17.5,19.1 17.7,19.1 C17.9,19.1 18.2,19 18.4,18.8 L20,17.3 C20.2,17.1 20.3,16.9 20.3,16.6 C20.2,16.4 20.1,16.1 19.9,15.9 L19.9,15.9 Z" id="Shape" fill="#CCCBCB" sketch:type="MSShapeGroup"></path>
            <g id="Group" transform="translate(26.000000, 3.000000)" fill="#CCCBCB" sketch:type="MSShapeGroup">
                <path d="M5.3,3.2 C5.2,3 5.2,2.8 5.1,2.6 C5,2.4 4.9,2.3 4.7,2.2 C4.6,2.1 4.4,2 4.2,1.9 C4,1.8 3.8,1.8 3.5,1.8 C3.1,1.8 2.8,1.9 2.5,2 C2.2,2.1 2,2.4 1.8,2.6 C1.6,2.9 1.5,3.1 1.4,3.5 C1.3,3.8 1.3,4.2 1.3,4.5 C1.3,4.8 1.3,5.2 1.4,5.5 C1.5,5.8 1.6,6.1 1.8,6.4 C2,6.7 2.2,6.9 2.5,7 C2.8,7.1 3.1,7.2 3.5,7.2 C3.8,7.2 4,7.2 4.2,7.1 C4.4,7 4.6,6.9 4.7,6.7 C4.9,6.5 5,6.3 5.1,6.1 C5.2,5.9 5.2,5.6 5.3,5.4 L6.5,5.4 C6.5,5.8 6.4,6.2 6.2,6.6 C6,7 5.8,7.3 5.6,7.5 C5.3,7.8 5,8 4.7,8.1 C4.3,8.2 3.9,8.3 3.5,8.3 C3,8.3 2.5,8.2 2.1,8 C1.7,7.8 1.3,7.5 1,7.2 C0.7,6.9 0.5,6.5 0.3,6 C0.1,5.5 0.1,5.1 0.1,4.5 C0.1,4 0.2,3.5 0.3,3.1 C0.5,2.6 0.7,2.2 1,1.9 C1.3,1.6 1.7,1.3 2.1,1.1 C2.5,0.9 3,0.8 3.5,0.8 C3.9,0.8 4.3,0.9 4.6,1 C5,1.1 5.3,1.3 5.5,1.5 C5.7,1.7 6,2 6.2,2.3 C6.4,2.6 6.5,2.9 6.5,3.3 L5.3,3.3 L5.3,3.2 Z" id="Shape"></path>
                <path d="M10.8,0.7 C11.3,0.7 11.8,0.8 12.2,1 C12.6,1.2 13,1.5 13.3,1.8 C13.6,2.1 13.8,2.5 14,3 C14.2,3.5 14.2,3.9 14.2,4.4 C14.2,4.9 14.1,5.4 14,5.9 C13.8,6.4 13.6,6.8 13.3,7.1 C13,7.4 12.6,7.7 12.2,7.9 C11.8,8.1 11.3,8.2 10.8,8.2 C10.3,8.2 9.8,8.1 9.4,7.9 C9,7.7 8.6,7.4 8.3,7.1 C8,6.8 7.8,6.4 7.6,5.9 C7.4,5.4 7.4,5 7.4,4.4 C7.4,3.9 7.5,3.4 7.6,3 C7.8,2.5 8,2.1 8.3,1.8 C8.6,1.5 9,1.2 9.4,1 C9.8,0.8 10.2,0.7 10.8,0.7 L10.8,0.7 Z M10.8,1.7 C10.4,1.7 10.1,1.8 9.8,1.9 C9.5,2.1 9.3,2.3 9.1,2.5 C8.9,2.8 8.8,3 8.7,3.4 C8.6,3.7 8.6,4.1 8.6,4.4 C8.6,4.7 8.6,5.1 8.7,5.4 C8.8,5.7 8.9,6 9.1,6.3 C9.3,6.6 9.5,6.8 9.8,6.9 C10.1,7.1 10.4,7.1 10.8,7.1 C11.2,7.1 11.5,7 11.8,6.9 C12.1,6.8 12.3,6.5 12.5,6.3 C12.7,6 12.8,5.8 12.9,5.4 C13,5.1 13,4.7 13,4.4 C13,4.1 13,3.7 12.9,3.4 C12.8,3.1 12.7,2.8 12.5,2.5 C12.3,2.2 12.1,2 11.8,1.9 C11.5,1.8 11.2,1.7 10.8,1.7 L10.8,1.7 Z" id="Shape"></path>
                <path d="M15.3,0.9 L18.5,0.9 C19,0.9 19.4,1 19.7,1.1 C20,1.2 20.3,1.4 20.4,1.6 C20.5,1.8 20.7,2.1 20.8,2.3 C20.9,2.6 20.9,2.8 20.9,3 C20.9,3.2 20.9,3.5 20.8,3.7 C20.7,4 20.6,4.2 20.4,4.4 C20.2,4.6 20,4.8 19.7,4.9 C19.4,5 19,5.1 18.5,5.1 L16.6,5.1 L16.6,7.8 L15.4,7.8 L15.4,0.9 L15.3,0.9 Z M16.6,4.3 L18.4,4.3 C18.5,4.3 18.7,4.3 18.8,4.2 C18.9,4.1 19.1,4.1 19.2,4 C19.3,3.9 19.4,3.8 19.5,3.6 C19.6,3.4 19.6,3.3 19.6,3 C19.6,2.8 19.6,2.6 19.5,2.4 C19.4,2.2 19.3,2.1 19.2,2 C19.1,1.9 19,1.8 18.8,1.8 L18.3,1.8 L16.5,1.8 L16.5,4.3 L16.6,4.3 Z" id="Shape"></path>
                <path d="M23.9,5.2 L21.2,0.9 L22.7,0.9 L24.6,4.1 L26.5,0.9 L27.9,0.9 L25.2,5.2 L25.2,8 L24,8 L24,5.2 L23.9,5.2 Z" id="Shape"></path>
            </g>
            <g id="Group" transform="translate(26.000000, 12.000000)" fill="#CCCBCB" sketch:type="MSShapeGroup">
                <path d="M0.5,0.9 L1.7,0.9 L1.7,7 L5.3,7 L5.3,8.1 L0.4,8.1 L0.4,0.9 L0.5,0.9 Z" id="Shape"></path>
                <path d="M6.2,0.9 L7.4,0.9 L7.4,8 L6.2,8 L6.2,0.9 L6.2,0.9 Z" id="Shape"></path>
                <path d="M9,0.9 L10.3,0.9 L13.6,6.2 L13.6,0.9 L14.8,0.9 L14.8,8 L13.5,8 L10.3,2.8 L10.3,8 L9,8 L9,0.9 L9,0.9 Z" id="Shape"></path>
                <path d="M16.2,0.9 L17.4,0.9 L17.4,4.1 L20.6,0.9 L22.1,0.9 L19.2,3.7 L22.3,8 L20.7,8 L18.4,4.6 L17.4,5.6 L17.4,8 L16.2,8 L16.2,0.9 L16.2,0.9 Z" id="Shape"></path>
            </g>
        </g>
    </g>
</svg>