<?xml version="1.0" encoding="UTF-8" standalone="no"?>
<svg width="109px" height="108px" viewBox="0 0 109 108" version="1.1" xmlns="http://www.w3.org/2000/svg" xmlns:xlink="http://www.w3.org/1999/xlink" xmlns:sketch="http://www.bohemiancoding.com/sketch/ns">
    <!-- Generator: Sketch 3.3.3 (12081) - http://www.bohemiancoding.com/sketch -->
    <title>Shape</title>
    <desc>Created with Sketch.</desc>
    <defs></defs>
    <g id="Page-1" stroke="none" stroke-width="1" fill="none" fill-rule="evenodd" sketch:type="MSPage">
        <g id="logo-icon" sketch:type="MSLayerGroup" fill="#FFFFFF">
            <path d="M77,42.7 L68.5,67.6 L55.1,49.4 L41.6,68.2 L30.2,41.7 L17.5,41.7 C16.5,44.8 15.8,48.1 15.6,51.5 L23.7,51.5 L39.4,88 L55.2,66.1 L71.7,88.6 L84.4,51.5 L98.6,51.5 C98.6,52.3 98.7,53 98.7,53.8 C98.7,78 79,97.8 54.7,97.8 C30.5,97.8 10.7,78.1 10.7,53.8 C10.7,29.5 30.4,9.8 54.7,9.8 C63.4,9.8 71.5,12.4 78.4,16.7 L87.2,10.9 C78.2,4 66.9,0 54.7,0 C25,0 0.9,24.1 0.9,53.8 C0.9,83.5 25,107.6 54.7,107.6 C84.4,107.6 108.5,83.5 108.5,53.8 C108.5,50 108.1,46.2 107.3,42.6 C107.3,42.7 77,42.7 77,42.7 L77,42.7 Z" id="Shape" sketch:type="MSShapeGroup"></path>
        </g>
    </g>
</svg>