<?xml version="1.0" encoding="utf-8"?>
<!-- Generator: Adobe Illustrator 17.0.0, SVG Export Plug-In . SVG Version: 6.00 Build 0)  -->
<!DOCTYPE svg PUBLIC "-//W3C//DTD SVG 1.1//EN" "http://www.w3.org/Graphics/SVG/1.1/DTD/svg11.dtd">
<svg version="1.1" id="Layer_1" xmlns="http://www.w3.org/2000/svg" xmlns:xlink="http://www.w3.org/1999/xlink" x="0px" y="0px"
	 width="600px" height="400px" viewBox="0 100 600 400" enable-background="new 0 100 600 400" xml:space="preserve">
<rect x="6" y="300" display="none" fill="#3B9E38" width="600" height="600"/>
<g display="none">
	<path display="inline" fill="#FFFFFF" d="M599.076,698.282c0-37.757-24.002-72.366-71.43-103.128
		c9.465-14.856,18.549-34.63,18.549-55.72c0-81.914-52.294-136.934-130.123-136.934c-37.77,0-69.361,13.128-92.031,35.838
		c-5.463-0.499-11.049-0.756-16.755-0.756c-5.701,0-11.283,0.257-16.743,0.756c-22.672-22.711-54.264-35.838-92.033-35.838
		c-77.829,0-130.123,55.021-130.123,136.934c0,21.44,7.86,40.453,18.035,56.07c-47.088,30.679-70.905,65.165-70.905,102.778
		c0,46.991,34.884,68.462,76.975,78.374c-0.594,4.414-1.111,8.843-1.111,13.333c0,99.63,135.165,99.63,215.916,99.63
		s215.916,0,215.916-99.63c0-4.491-0.521-8.92-1.115-13.333C564.188,766.749,599.076,745.278,599.076,698.282z M416.072,455.175
		c49.218,0,77.449,30.72,77.449,84.259c0,14.403-13.899,34.774-23.765,44.65L459.1,594.748
		c-0.844-61.409-27.013-109.47-70.063-135.53C397.227,456.759,406.095,455.175,416.072,455.175z M198.51,455.175
		c9.974,0,18.84,1.584,27.031,4.043c-43.045,26.055-69.21,74.115-70.057,135.519l-10.657-10.653
		c-15.103-15.103-23.765-31.379-23.765-44.65C121.062,485.895,149.292,455.175,198.51,455.175z M112.5,727.191
		c-30.386-5.278-44.308-14.64-44.308-28.909c0-22.634,24.979-48.313,70.329-72.305l18.62-9.841
		c3.524,19.295,12.104,36.579,22.265,51.096C149.444,686.09,127.194,706.126,112.5,727.191z M307.296,836.944
		c-115.946,0-163.241-13.601-163.241-46.955c0-37.839,47.881-71.111,88.045-92.346l31.523-16.687l-25.206-25.226
		c-11.348-11.358-30.381-33.971-30.381-57.963c0-67.325,37.099-107.51,99.249-107.51s99.259,40.185,99.259,107.51
		c0,20.082-18.632,46.193-30.37,57.942l-25.226,25.226l31.533,16.667c40.165,21.255,88.056,54.547,88.056,92.387
		C470.537,823.343,423.243,836.944,307.296,836.944z M502.076,727.191c-14.784-21.193-37.208-41.358-67.445-60.329
		c9.216-13.575,18.625-31.358,22.577-50.859l18.863,9.974c45.35,23.992,70.329,49.671,70.329,72.305
		C546.401,712.551,532.476,721.919,502.076,727.191z"/>
</g>
<path display="none" fill="#FFFFFF" d="M598.1,465.54v582.608v1.347v2.719h-1.348c-1.823,9.912-7.691,14.881-17.604,14.881H34.495
	c-12.66,0-18.978-6.316-18.978-18.947V664.73l218.141-218.143h345.489C591.783,446.587,598.1,452.927,598.1,465.54 M233.658,683.677
	H84.61v42.003l116.511,115.165l188.351-325.169H252.61V664.73C252.61,677.361,246.293,683.677,233.658,683.677 M84.61,998.007
	h25.745l71.815-126.004l-97.56-97.534L84.61,998.007L84.61,998.007z M149.658,998.007h379.349V735.166L385.402,591.562
	L149.658,998.007z M389.472,725.68c23.472,0,43.349,8.364,59.605,25.068c16.256,16.734,24.396,36.358,24.396,58.933
	c0,19.898-5.419,36.578-16.281,50.142l-52.837,90.767c0,0.921-0.898,2.268-2.697,4.066c-3.62,3.621-7.241,5.42-10.837,5.42
	c-6.342,0-10.837-1.798-13.559-5.42v-1.347v-1.372l-54.186-93.468c-10.837-15.357-16.256-31.609-16.256-48.789
	c0-23.471,8.116-43.351,24.371-59.603C347.448,733.819,366.874,725.68,389.472,725.68 M360.332,840.168
	c7.666,7.693,17.38,11.51,29.14,11.51c11.712,0,21.425-3.816,29.116-11.51c7.666-7.663,11.511-17.38,11.511-29.116
	c0-11.735-3.845-21.697-11.511-29.817c-7.691-8.138-17.404-12.205-29.116-12.205c-11.76,0-21.474,4.066-29.14,12.205
	c-7.69,8.12-11.511,18.082-11.511,29.817C348.821,822.788,352.642,832.505,360.332,840.168 M428.752,515.676l-25.745,44.722
	l126,124.632V515.676H428.752z"/>
<g display="none">
	<g display="inline">
		<rect x="255.65" y="384.007" fill="#ADADAD" width="100.11" height="432.391"/>
	</g>
	<g display="inline">
		<rect x="89.51" y="550.147" fill="#ADADAD" width="432.391" height="100.11"/>
	</g>
</g>
<g display="none">
	<polygon display="inline" fill="#ADADAD" points="226.816,817.591 16,606.776 86.789,535.987 226.816,676.014 522.622,380.208
		593.41,450.997 	"/>
</g>
<path display="none" fill="#F2F4F4" d="M430.076,299.799l152.085-152.085c2.454-2.454,3.683-6.133,3.683-11.033
	c0.004-4.904-1.627-8.985-4.904-12.262L475.461,18.939c-8.162-8.162-15.945-8.587-23.303-1.229L300.073,169.796l-150.86-150.86
	c-8.162-8.162-15.937-8.579-23.295-1.221L19.214,124.418c-7.358,7.358-6.941,15.134,1.221,23.295l150.86,150.86L19.21,450.659
	c-7.358,7.358-6.933,15.141,1.229,23.303l105.479,105.479c3.277,3.277,7.358,4.908,12.262,4.904
	c4.904-0.004,8.583-1.233,11.033-3.683l152.085-152.085l150.86,150.86c3.277,3.277,7.358,4.908,12.262,4.904
	c4.912,0.004,8.587-1.221,11.041-3.675l106.704-106.704c2.454-2.454,3.683-6.133,3.675-11.041c0.004-4.904-1.627-8.985-4.904-12.262
	L430.076,299.799z"/>
<text transform="matrix(1 0 0 1 13.8139 568.5215)" display="none" fill="#F2F4F4" font-family="'fontcustom'" font-size="736.9993"></text>
<g>
	<g>
		<g>
			<path fill="#FFFFFF" d="M30.669,348.22h12.651v9.258c-3.039,2.262-7.28,3.746-11.944,3.746c-10.107,0-16.821-7.492-16.821-17.669
				v-0.141c0-9.471,6.926-17.457,16.044-17.457c6.29,0,10.036,2.05,13.853,5.301l5.513-6.573
				c-5.089-4.311-10.389-6.714-19.012-6.714c-14.913,0-25.514,11.732-25.514,25.585v0.141c0,14.418,10.177,25.444,25.656,25.444
				c8.764,0,15.761-3.534,20.638-7.704v-20.779H30.669V348.22z"/>
		</g>
		<g>
			<path fill="#FFFFFF" d="M121.841,334.58v-0.141c0-4.311-1.484-7.986-4.099-10.672c-3.181-3.11-8.057-4.947-14.277-4.947H81.414
				v49.474h8.693v-17.245h10.884l12.156,17.245h10.319l-13.358-18.729C116.964,347.584,121.841,342.708,121.841,334.58z
				 M90.107,343.344v-16.609h12.651c6.431,0,10.248,2.898,10.248,8.199v0.141c0,5.018-3.958,8.269-10.177,8.269H90.107z"/>
		</g>
		<g>
			<path fill="#FFFFFF" d="M168.415,318.465l-21.768,49.827h8.905l5.089-11.944h23.394l5.018,11.944h9.188l-21.768-49.827H168.415z
				 M163.821,348.644l8.481-19.789l8.552,19.789H163.821z"/>
		</g>
		<g>
			<path fill="#FFFFFF" d="M243.402,339.598c-9.541-2.262-11.803-3.958-11.803-7.774v-0.141c0-3.251,2.968-5.866,8.057-5.866
				c4.523,0,8.976,1.767,13.429,5.089l4.665-6.573c-5.018-4.029-10.743-6.22-17.952-6.22c-9.824,0-16.892,5.866-16.892,14.347v0.141
				c0,9.117,5.937,12.227,16.468,14.771c9.188,2.12,11.167,4.029,11.167,7.562v0.141c0,3.675-3.392,6.219-8.764,6.219
				c-6.078,0-10.884-2.332-15.62-6.432l-5.23,6.22c5.937,5.301,13.075,7.916,20.638,7.916c10.389,0,17.669-5.513,17.669-14.771
				v-0.141C259.234,345.888,253.862,342.142,243.402,339.598z"/>
		</g>
		<g>
			<path fill="#FFFFFF" d="M306.304,339.598c-9.541-2.262-11.803-3.958-11.803-7.774v-0.141c0-3.251,2.968-5.866,8.057-5.866
				c4.523,0,8.976,1.767,13.429,5.089l4.665-6.573c-5.018-4.029-10.743-6.22-17.952-6.22c-9.824,0-16.892,5.866-16.892,14.347v0.141
				c0,9.117,5.937,12.227,16.468,14.771c9.188,2.12,11.167,4.029,11.167,7.562v0.141c0,3.675-3.392,6.219-8.764,6.219
				c-6.078,0-10.884-2.332-15.62-6.432l-5.23,6.22c5.937,5.301,13.075,7.916,20.638,7.916c10.389,0,17.669-5.513,17.669-14.771
				v-0.141C322.135,345.888,316.764,342.142,306.304,339.598z"/>
		</g>
		<g>
			<polygon fill="#FFFFFF" points="398.042,355.5 385.885,318.678 378.535,318.678 366.379,355.5 354.576,318.819 345.176,318.819
				362.421,368.646 369.912,368.646 382.069,333.096 394.225,368.646 401.787,368.646 418.962,318.819 409.845,318.819 			"/>
		</g>
		<g>
			<rect x="446.736" y="318.819" fill="#FFFFFF" width="8.693" height="49.474"/>
		</g>
		<g>
			<path fill="#FFFFFF" d="M527.448,334.58v-0.141c0-4.311-1.484-7.986-4.099-10.672c-3.181-3.11-8.057-4.947-14.277-4.947H487.02
				v49.474h8.693v-17.245h10.884l12.156,17.245h10.319l-13.358-18.729C522.571,347.584,527.448,342.708,527.448,334.58z
				 M495.714,343.344v-16.609h12.651c6.432,0,10.248,2.898,10.248,8.199v0.141c0,5.018-3.958,8.269-10.177,8.269H495.714z"/>
		</g>
		<g>
			<polygon fill="#FFFFFF" points="565.187,360.518 565.187,347.231 589.995,347.231 589.995,339.456 565.187,339.456
				565.187,326.593 593.175,326.593 593.175,318.819 556.494,318.819 556.494,368.292 593.529,368.292 593.529,360.518 			"/>
		</g>
	</g>
	<g>
		<g>
			<path fill="#49A6B6" d="M321.503,192.065l-8.4,24.561l-13.169-17.94l-13.301,18.497l-11.202-26.088h-12.506
				c-1.01,3.082-1.644,6.331-1.84,9.698h7.955l15.45,35.981l15.524-21.589l16.257,22.146l12.496-36.538h13.976
				c0.039,0.748,0.059,1.501,0.059,2.258c0,23.886-19.433,43.319-43.319,43.319c-23.886,0-43.319-19.433-43.319-43.319
				s19.433-43.319,43.319-43.319c8.577,0,16.573,2.516,23.309,6.834l8.692-5.751c-8.9-6.76-19.988-10.782-32-10.782
				c-29.234,0-53.017,23.784-53.017,53.017s23.784,53.017,53.017,53.017c29.234,0,53.017-23.784,53.017-53.017
				c0-3.766-0.401-7.44-1.152-10.986H321.503z"/>
		</g>
	</g>
	<g>
		<path fill="#ACB4B5" d="M66.291,434.938h-5.143v-19.976h-6.587v-4.28h18.316v4.28h-6.587V434.938z"/>
		<path fill="#ACB4B5" d="M96.222,434.938h-5.06v-10.834c0-2.676-0.995-4.015-2.986-4.015c-1.416,0-2.439,0.481-3.069,1.443
			c-0.63,0.962-0.946,2.522-0.946,4.679v8.727H79.1v-25.816h5.06v5.259c0,0.41-0.039,1.372-0.116,2.887l-0.116,1.493h0.265
			c1.128-1.814,2.92-2.721,5.375-2.721c2.179,0,3.833,0.586,4.961,1.759c1.128,1.173,1.692,2.854,1.692,5.044V434.938z"/>
		<path fill="#ACB4B5" d="M112.715,435.27c-2.986,0-5.32-0.824-7.001-2.472c-1.681-1.648-2.522-3.982-2.522-7.001
			c0-3.108,0.777-5.511,2.331-7.209c1.554-1.698,3.702-2.547,6.446-2.547c2.621,0,4.662,0.747,6.122,2.24
			c1.46,1.493,2.19,3.556,2.19,6.188v2.455h-11.962c0.055,1.438,0.481,2.561,1.278,3.368c0.796,0.808,1.913,1.211,3.351,1.211
			c1.117,0,2.173-0.116,3.169-0.348c0.995-0.232,2.035-0.602,3.119-1.112v3.915c-0.885,0.443-1.831,0.771-2.837,0.987
			C115.392,435.162,114.164,435.27,112.715,435.27z M112.002,419.641c-1.073,0-1.914,0.34-2.522,1.02
			c-0.608,0.681-0.957,1.646-1.045,2.895h7.101c-0.022-1.25-0.348-2.215-0.979-2.895
			C113.926,419.981,113.074,419.641,112.002,419.641z"/>
		<path fill="#ACB4B5" d="M139.396,434.938v-24.256h5.143v24.256H139.396z"/>
		<path fill="#ACB4B5" d="M170.257,434.938h-5.06v-10.834c0-1.338-0.238-2.342-0.713-3.012c-0.476-0.669-1.233-1.004-2.273-1.004
			c-1.416,0-2.439,0.473-3.069,1.419c-0.63,0.945-0.946,2.513-0.946,4.703v8.727h-5.06v-18.549H157l0.68,2.372h0.282
			c0.564-0.896,1.341-1.573,2.331-2.032c0.99-0.459,2.115-0.689,3.376-0.689c2.157,0,3.794,0.584,4.911,1.751
			c1.117,1.167,1.676,2.851,1.676,5.052V434.938z"/>
		<path fill="#ACB4B5" d="M186.169,431.238c0.885,0,1.947-0.193,3.185-0.581v3.766c-1.261,0.564-2.81,0.846-4.645,0.846
			c-2.024,0-3.498-0.511-4.421-1.535c-0.924-1.022-1.385-2.557-1.385-4.604v-8.943h-2.422v-2.14l2.787-1.692l1.46-3.915h3.235v3.949
			h5.193v3.799h-5.193v8.943c0,0.719,0.202,1.25,0.606,1.593C184.971,431.067,185.505,431.238,186.169,431.238z"/>
		<path fill="#ACB4B5" d="M204.387,435.27c-2.986,0-5.32-0.824-7.001-2.472c-1.681-1.648-2.522-3.982-2.522-7.001
			c0-3.108,0.777-5.511,2.331-7.209c1.554-1.698,3.702-2.547,6.446-2.547c2.621,0,4.662,0.747,6.122,2.24
			c1.46,1.493,2.19,3.556,2.19,6.188v2.455H199.99c0.055,1.438,0.481,2.561,1.278,3.368c0.796,0.808,1.913,1.211,3.351,1.211
			c1.117,0,2.173-0.116,3.169-0.348s2.035-0.602,3.119-1.112v3.915c-0.885,0.443-1.831,0.771-2.837,0.987
			C207.063,435.162,205.836,435.27,204.387,435.27z M203.673,419.641c-1.073,0-1.914,0.34-2.522,1.02
			c-0.608,0.681-0.957,1.646-1.045,2.895h7.101c-0.022-1.25-0.348-2.215-0.979-2.895
			C205.598,419.981,204.746,419.641,203.673,419.641z"/>
		<path fill="#ACB4B5" d="M229.308,416.041c0.686,0,1.255,0.05,1.709,0.149l-0.382,4.745c-0.409-0.11-0.907-0.166-1.493-0.166
			c-1.615,0-2.873,0.415-3.774,1.244c-0.902,0.83-1.352,1.991-1.352,3.484v9.44h-5.06v-18.549h3.833l0.747,3.119h0.249
			c0.575-1.04,1.352-1.877,2.331-2.513S228.157,416.041,229.308,416.041z"/>
		<path fill="#ACB4B5" d="M254.395,434.938h-5.06v-10.834c0-1.338-0.238-2.342-0.713-3.012c-0.476-0.669-1.233-1.004-2.273-1.004
			c-1.416,0-2.439,0.473-3.069,1.419c-0.63,0.945-0.946,2.513-0.946,4.703v8.727h-5.06v-18.549h3.866l0.68,2.372h0.282
			c0.564-0.896,1.341-1.573,2.331-2.032c0.99-0.459,2.115-0.689,3.376-0.689c2.157,0,3.794,0.584,4.911,1.751
			c1.117,1.167,1.676,2.851,1.676,5.052V434.938z"/>
		<path fill="#ACB4B5" d="M270.887,435.27c-2.986,0-5.32-0.824-7.001-2.472c-1.681-1.648-2.522-3.982-2.522-7.001
			c0-3.108,0.777-5.511,2.331-7.209c1.554-1.698,3.702-2.547,6.446-2.547c2.621,0,4.662,0.747,6.122,2.24
			c1.46,1.493,2.19,3.556,2.19,6.188v2.455h-11.962c0.055,1.438,0.481,2.561,1.278,3.368c0.796,0.808,1.913,1.211,3.351,1.211
			c1.117,0,2.173-0.116,3.169-0.348c0.995-0.232,2.035-0.602,3.119-1.112v3.915c-0.885,0.443-1.831,0.771-2.837,0.987
			C273.564,435.162,272.336,435.27,270.887,435.27z M270.174,419.641c-1.073,0-1.914,0.34-2.522,1.02
			c-0.608,0.681-0.957,1.646-1.045,2.895h7.101c-0.022-1.25-0.348-2.215-0.979-2.895
			C272.099,419.981,271.247,419.641,270.174,419.641z"/>
		<path fill="#ACB4B5" d="M293.27,431.238c0.885,0,1.947-0.193,3.185-0.581v3.766c-1.261,0.564-2.81,0.846-4.645,0.846
			c-2.024,0-3.498-0.511-4.422-1.535c-0.924-1.022-1.385-2.557-1.385-4.604v-8.943h-2.422v-2.14l2.787-1.692l1.46-3.915h3.235v3.949
			h5.193v3.799h-5.193v8.943c0,0.719,0.202,1.25,0.606,1.593C292.073,431.067,292.606,431.238,293.27,431.238z"/>
		<path fill="#ACB4B5" d="M307.174,410.682l0.232,0.365c-0.553,2.179-1.526,4.828-2.92,7.947h-3.633
			c0.763-3.274,1.316-6.044,1.659-8.312H307.174z"/>
		<path fill="#ACB4B5" d="M326.289,429.43c0,1.903-0.661,3.351-1.983,4.347c-1.322,0.995-3.299,1.493-5.931,1.493
			c-1.35,0-2.5-0.091-3.451-0.274c-0.951-0.182-1.842-0.45-2.671-0.804v-4.181c0.94,0.443,1.999,0.813,3.177,1.112
			c1.178,0.299,2.215,0.448,3.111,0.448c1.836,0,2.754-0.531,2.754-1.593c0-0.398-0.122-0.722-0.365-0.97
			c-0.243-0.249-0.664-0.531-1.261-0.847c-0.597-0.315-1.394-0.683-2.389-1.103c-1.427-0.597-2.475-1.15-3.144-1.659
			c-0.669-0.509-1.156-1.092-1.46-1.751c-0.304-0.657-0.456-1.468-0.456-2.43c0-1.648,0.639-2.922,1.916-3.824
			c1.277-0.902,3.089-1.352,5.434-1.352c2.234,0,4.408,0.487,6.52,1.46l-1.526,3.65c-0.929-0.398-1.798-0.724-2.605-0.979
			c-0.807-0.254-1.632-0.382-2.472-0.382c-1.493,0-2.24,0.404-2.24,1.211c0,0.454,0.241,0.846,0.722,1.178
			c0.481,0.332,1.535,0.824,3.161,1.477c1.449,0.586,2.511,1.134,3.185,1.643c0.675,0.509,1.172,1.095,1.493,1.759
			C326.128,427.721,326.289,428.512,326.289,429.43z"/>
		<path fill="#ACB4B5" d="M366.757,434.938h-6.537l-10.552-18.35h-0.149c0.21,3.241,0.315,5.553,0.315,6.935v11.415h-4.596v-24.256
			h6.487l10.535,18.167h0.116c-0.166-3.152-0.249-5.381-0.249-6.686v-11.481h4.629V434.938z"/>
		<path fill="#ACB4B5" d="M383.747,435.27c-2.986,0-5.32-0.824-7.001-2.472c-1.681-1.648-2.522-3.982-2.522-7.001
			c0-3.108,0.777-5.511,2.331-7.209c1.554-1.698,3.702-2.547,6.446-2.547c2.621,0,4.662,0.747,6.122,2.24
			c1.46,1.493,2.19,3.556,2.19,6.188v2.455h-11.962c0.055,1.438,0.481,2.561,1.278,3.368c0.796,0.808,1.913,1.211,3.351,1.211
			c1.117,0,2.173-0.116,3.169-0.348c0.995-0.232,2.035-0.602,3.119-1.112v3.915c-0.885,0.443-1.831,0.771-2.837,0.987
			C386.424,435.162,385.196,435.27,383.747,435.27z M383.034,419.641c-1.073,0-1.914,0.34-2.522,1.02
			c-0.608,0.681-0.957,1.646-1.045,2.895h7.101c-0.022-1.25-0.348-2.215-0.979-2.895
			C384.958,419.981,384.107,419.641,383.034,419.641z"/>
		<path fill="#ACB4B5" d="M413.562,434.938l-1.427-6.487l-1.925-8.196h-0.116l-3.385,14.683h-5.442l-5.276-18.549h5.044l2.14,8.213
			c0.343,1.471,0.691,3.501,1.045,6.089h0.1c0.044-0.84,0.238-2.173,0.581-3.998l0.265-1.41l2.29-8.893h5.575l2.173,8.893
			c0.044,0.244,0.113,0.603,0.207,1.078c0.094,0.476,0.185,0.982,0.274,1.518c0.088,0.537,0.169,1.062,0.241,1.576
			c0.072,0.515,0.113,0.927,0.124,1.236h0.1c0.1-0.796,0.276-1.889,0.531-3.276c0.254-1.388,0.437-2.326,0.547-2.812l2.223-8.213
			h4.961l-5.342,18.549H413.562z"/>
		<path fill="#ACB4B5" d="M443.229,429.43c0,1.903-0.661,3.351-1.983,4.347c-1.322,0.995-3.299,1.493-5.931,1.493
			c-1.35,0-2.5-0.091-3.451-0.274c-0.951-0.182-1.842-0.45-2.671-0.804v-4.181c0.94,0.443,1.999,0.813,3.177,1.112
			c1.178,0.299,2.215,0.448,3.111,0.448c1.836,0,2.754-0.531,2.754-1.593c0-0.398-0.122-0.722-0.365-0.97
			c-0.243-0.249-0.664-0.531-1.261-0.847c-0.597-0.315-1.394-0.683-2.389-1.103c-1.427-0.597-2.475-1.15-3.144-1.659
			c-0.669-0.509-1.156-1.092-1.46-1.751c-0.304-0.657-0.456-1.468-0.456-2.43c0-1.648,0.639-2.922,1.916-3.824
			c1.277-0.902,3.089-1.352,5.434-1.352c2.234,0,4.408,0.487,6.52,1.46l-1.526,3.65c-0.929-0.398-1.798-0.724-2.605-0.979
			c-0.807-0.254-1.632-0.382-2.472-0.382c-1.493,0-2.24,0.404-2.24,1.211c0,0.454,0.241,0.846,0.722,1.178
			c0.481,0.332,1.535,0.824,3.161,1.477c1.449,0.586,2.511,1.134,3.185,1.643c0.675,0.509,1.172,1.095,1.493,1.759
			C443.068,427.721,443.229,428.512,443.229,429.43z"/>
		<path fill="#ACB4B5" d="M460.418,416.041c0.686,0,1.255,0.05,1.709,0.149l-0.382,4.745c-0.409-0.11-0.907-0.166-1.493-0.166
			c-1.615,0-2.873,0.415-3.774,1.244c-0.902,0.83-1.352,1.991-1.352,3.484v9.44h-5.06v-18.549h3.832l0.747,3.119h0.249
			c0.575-1.04,1.352-1.877,2.331-2.513C458.203,416.359,459.268,416.041,460.418,416.041z"/>
		<path fill="#ACB4B5" d="M485.24,425.63c0,3.02-0.796,5.381-2.389,7.084c-1.593,1.704-3.81,2.555-6.653,2.555
			c-1.781,0-3.351-0.39-4.712-1.17c-1.36-0.779-2.406-1.899-3.136-3.359s-1.095-3.163-1.095-5.11c0-3.03,0.791-5.386,2.372-7.068
			c1.582-1.681,3.805-2.522,6.67-2.522c1.781,0,3.351,0.387,4.712,1.161c1.36,0.775,2.406,1.886,3.136,3.335
			C484.875,421.986,485.24,423.684,485.24,425.63z M472.415,425.63c0,1.836,0.301,3.224,0.904,4.164
			c0.603,0.94,1.584,1.41,2.945,1.41c1.349,0,2.32-0.467,2.912-1.402c0.592-0.935,0.888-2.326,0.888-4.173
			c0-1.836-0.299-3.213-0.896-4.131c-0.597-0.918-1.576-1.377-2.937-1.377c-1.35,0-2.323,0.456-2.92,1.369
			C472.713,422.404,472.415,423.784,472.415,425.63z"/>
		<path fill="#ACB4B5" d="M509.165,425.63c0,3.02-0.796,5.381-2.389,7.084c-1.593,1.704-3.81,2.555-6.653,2.555
			c-1.781,0-3.351-0.39-4.712-1.17c-1.36-0.779-2.406-1.899-3.136-3.359c-0.73-1.46-1.095-3.163-1.095-5.11
			c0-3.03,0.791-5.386,2.373-7.068c1.582-1.681,3.805-2.522,6.67-2.522c1.781,0,3.351,0.387,4.712,1.161
			c1.36,0.775,2.406,1.886,3.136,3.335C508.8,421.986,509.165,423.684,509.165,425.63z M496.34,425.63
			c0,1.836,0.301,3.224,0.904,4.164c0.603,0.94,1.584,1.41,2.945,1.41c1.349,0,2.32-0.467,2.912-1.402
			c0.592-0.935,0.888-2.326,0.888-4.173c0-1.836-0.299-3.213-0.896-4.131c-0.597-0.918-1.576-1.377-2.937-1.377
			c-1.35,0-2.323,0.456-2.92,1.369C496.639,422.404,496.34,423.784,496.34,425.63z"/>
		<path fill="#ACB4B5" d="M532.842,434.938h-5.06v-10.834c0-1.338-0.224-2.342-0.672-3.012c-0.448-0.669-1.153-1.004-2.115-1.004
			c-1.294,0-2.234,0.476-2.82,1.427c-0.586,0.951-0.879,2.517-0.879,4.695v8.727h-5.06v-18.549h3.866l0.68,2.372h0.282
			c0.498-0.851,1.217-1.518,2.157-1.999c0.94-0.482,2.018-0.722,3.235-0.722c2.776,0,4.656,0.907,5.641,2.721h0.448
			c0.498-0.863,1.23-1.532,2.198-2.008c0.968-0.475,2.06-0.713,3.277-0.713c2.101,0,3.691,0.539,4.77,1.618
			c1.078,1.078,1.618,2.807,1.618,5.184v12.095h-5.077v-10.834c0-1.338-0.224-2.342-0.672-3.012
			c-0.448-0.669-1.153-1.004-2.115-1.004c-1.239,0-2.165,0.443-2.779,1.327c-0.614,0.885-0.921,2.29-0.921,4.214V434.938z"/>
	</g>
</g>
</svg>
