<?xml version="1.0" encoding="UTF-8" standalone="no"?>
<svg width="1589px" height="110px" viewBox="0 0 1589 110" version="1.1" xmlns="http://www.w3.org/2000/svg" xmlns:xlink="http://www.w3.org/1999/xlink" xmlns:sketch="http://www.bohemiancoding.com/sketch/ns">
    <!-- Generator: Sketch 3.3.3 (12081) - http://www.bohemiancoding.com/sketch -->
    <title>logo-inline</title>
    <desc>Created with Sketch.</desc>
    <defs></defs>
    <g id="Page-1" stroke="none" stroke-width="1" fill="none" fill-rule="evenodd" sketch:type="MSPage">
        <g id="logo-inline" sketch:type="MSLayerGroup" fill="#FFFFFF">
            <path d="M76.3,43.8 L67.8,68.7 L54.4,50.5 L40.9,69.3 L29.5,42.8 L16.8,42.8 C15.8,45.9 15.1,49.2 14.9,52.6 L23,52.6 L38.7,89.1 L54.5,67.2 L71,89.7 L83.7,52.6 L97.9,52.6 C97.9,53.4 98,54.1 98,54.9 C98,79.1 78.3,98.9 54,98.9 C29.8,98.9 10,79.2 10,54.9 C10,30.6 29.7,10.9 54,10.9 C62.7,10.9 70.8,13.5 77.7,17.8 L86.5,12 C77.5,5 66.2,1 54,1 C24.3,1 0.2,25.1 0.2,54.8 C0.2,84.5 24.3,108.6 54,108.6 C83.7,108.6 107.8,84.5 107.8,54.8 C107.8,51 107.4,47.2 106.6,43.6 C106.6,43.8 76.3,43.8 76.3,43.8 L76.3,43.8 Z" id="Shape" sketch:type="MSShapeGroup"></path>
            <g id="Group" transform="translate(178.000000, 28.000000)" sketch:type="MSShapeGroup">
                <path d="M27.1,31.8 L40.2,31.8 L40.2,41.4 C37,43.7 32.6,45.3 27.8,45.3 C17.3,45.3 10.4,37.5 10.4,27 L10.4,26.9 C10.4,17.1 17.6,8.8 27,8.8 C33.5,8.8 37.4,10.9 41.4,14.3 L47.1,7.5 C41.8,3 36.3,0.5 27.4,0.5 C11.9,0.5 0.9,12.7 0.9,27 L0.9,27.1 C0.9,42.1 11.5,53.5 27.5,53.5 C36.6,53.5 43.8,49.8 48.9,45.5 L48.9,24 L27.1,24 L27.1,31.8 L27.1,31.8 Z" id="Shape"></path>
                <path d="M121.7,17.7 L121.7,17.6 C121.7,13.1 120.2,9.3 117.4,6.5 C114.1,3.3 109,1.4 102.6,1.4 L79.7,1.4 L79.7,52.7 L88.7,52.7 L88.7,34.8 L100.1,34.8 L112.7,52.7 L123.4,52.7 L109.5,33.3 C116.6,31.2 121.7,26.1 121.7,17.7 L121.7,17.7 Z M88.8,26.8 L88.8,9.6 L101.9,9.6 C108.6,9.6 112.5,12.6 112.5,18.1 L112.5,18.2 C112.5,23.4 108.4,26.8 101.9,26.8 L88.8,26.8 L88.8,26.8 Z" id="Shape"></path>
                <path d="M170,1 L147.4,52.7 L156.6,52.7 L161.9,40.3 L186.2,40.3 L191.4,52.7 L200.9,52.7 L178.4,1 L170,1 L170,1 Z M165.2,32.2 L174,11.7 L182.9,32.2 L165.2,32.2 L165.2,32.2 Z" id="Shape"></path>
                <path d="M247.8,22.9 C237.9,20.6 235.6,18.8 235.6,14.8 L235.6,14.7 C235.6,11.3 238.7,8.6 244,8.6 C248.7,8.6 253.3,10.4 257.9,13.9 L262.7,7.1 C257.5,2.9 251.6,0.6 244.1,0.6 C233.9,0.6 226.6,6.7 226.6,15.5 L226.6,15.6 C226.6,25.1 232.8,28.3 243.7,30.9 C253.2,33.1 255.3,35.1 255.3,38.7 L255.3,38.8 C255.3,42.6 251.8,45.3 246.2,45.3 C239.9,45.3 234.9,42.9 230,38.6 L224.6,45.1 C230.8,50.6 238.2,53.3 246,53.3 C256.8,53.3 264.3,47.6 264.3,38 L264.3,37.9 C264.2,29.4 258.6,25.5 247.8,22.9 L247.8,22.9 Z" id="Shape"></path>
                <path d="M313,22.9 C303.1,20.6 300.8,18.8 300.8,14.8 L300.8,14.7 C300.8,11.3 303.9,8.6 309.2,8.6 C313.9,8.6 318.5,10.4 323.1,13.9 L327.9,7.1 C322.7,2.9 316.8,0.6 309.3,0.6 C299.1,0.6 291.8,6.7 291.8,15.5 L291.8,15.6 C291.8,25.1 298,28.3 308.9,30.9 C318.4,33.1 320.5,35.1 320.5,38.7 L320.5,38.8 C320.5,42.6 317,45.3 311.4,45.3 C305.1,45.3 300.1,42.9 295.2,38.6 L289.8,45.1 C296,50.6 303.4,53.3 311.2,53.3 C322,53.3 329.5,47.6 329.5,38 L329.5,37.9 C329.5,29.4 323.9,25.5 313,22.9 L313,22.9 Z" id="Shape"></path>
                <path d="M408.2,39.4 L395.6,1.2 L388,1.2 L375.3,39.4 L363.1,1.2 L353.4,1.2 L371.2,53 L379,53 L391.6,16.1 L404.2,53 L412.1,53 L429.9,1.2 L420.4,1.2 L408.2,39.4 Z" id="Shape"></path>
                <rect id="Rectangle-path" x="458.7" y="1.2" width="9" height="51.3"></rect>
                <path d="M542.4,17.7 L542.4,17.6 C542.4,13.1 540.9,9.3 538.1,6.5 C534.8,3.3 529.7,1.4 523.3,1.4 L500.4,1.4 L500.4,52.7 L509.4,52.7 L509.4,34.8 L520.7,34.8 L533.3,52.7 L544,52.7 L530.1,33.3 C537.4,31.2 542.4,26.1 542.4,17.7 L542.4,17.7 Z M509.5,26.8 L509.5,9.6 L522.6,9.6 C529.3,9.6 533.2,12.6 533.2,18.1 L533.2,18.2 C533.2,23.4 529.1,26.8 522.6,26.8 L509.5,26.8 L509.5,26.8 Z" id="Shape"></path>
                <path d="M581.6,44.6 L581.6,30.8 L607.3,30.8 L607.3,22.7 L581.6,22.7 L581.6,9.4 L610.6,9.4 L610.6,1.2 L572.6,1.2 L572.6,52.7 L611,52.7 L611,44.6 L581.6,44.6 Z" id="Shape"></path>
            </g>
            <rect id="Rectangle-path" sketch:type="MSShapeGroup" x="883.4" y="0.8" width="11.9" height="108.5"></rect>
            <g id="Group" transform="translate(968.000000, 29.000000)" sketch:type="MSShapeGroup">
                <path d="M20.5,31.3 L0,0 L10.8,0 L25.2,22.8 L39.8,0 L50.1,0 L29.6,31 L29.6,51.8 L20.4,51.8 L20.5,31.3 L20.5,31.3 Z" id="Shape"></path>
                <path d="M50,32.5 L50,32.5 C50,21.2 58.9,12 70.8,12 C82.8,12 91.5,21 91.5,32.2 L91.5,32.4 C91.5,43.5 82.6,52.7 70.7,52.7 C58.8,52.7 50,43.6 50,32.5 L50,32.5 Z M82.6,32.5 L82.6,32.5 C82.6,25.5 77.7,19.9 70.6,19.9 C63.4,19.9 58.8,25.5 58.8,32.4 L58.8,32.6 C58.8,39.3 63.7,45.1 70.6,45.1 C78,44.8 82.6,39.2 82.6,32.5 L82.6,32.5 Z" id="Shape"></path>
                <path d="M103.4,37.6 L103.4,12.8 L112.3,12.8 L112.3,35 C112.3,41.1 115.3,44.5 120.7,44.5 C125.8,44.5 129.6,40.9 129.6,35 L129.6,13 L138.6,13 L138.6,51.8 L129.6,51.8 L129.6,45.7 C127.1,49.3 123.5,52.6 117.5,52.6 C108.5,52.5 103.4,46.6 103.4,37.6 L103.4,37.6 Z" id="Shape"></path>
                <path d="M152.8,12.8 L161.7,12.8 L161.7,21.7 C164.2,15.8 168.6,11.9 175.5,12.2 L175.5,21.7 L175,21.7 C167.1,21.7 161.7,26.8 161.7,37.1 L161.7,51.9 L152.8,51.9 L152.8,12.8 L152.8,12.8 Z" id="Shape"></path>
                <path d="M212.9,0.2 L221.3,0.2 L249,35.9 L249,0.2 L257.9,0.2 L257.9,51.8 L250.4,51.8 L221.9,15.1 L221.9,51.8 L213,51.8 L212.9,0.2 L212.9,0.2 Z" id="Shape"></path>
                <path d="M271.3,32.5 L271.3,32.5 C271.3,21.2 279.2,12 290.3,12 C302.8,12 309,21.7 309,33 C309,33.8 309,34.6 308.8,35.5 L280.1,35.5 C281.1,41.9 285.5,45.3 291.2,45.3 C295.6,45.3 298.6,43.7 301.7,40.7 L306.9,45.3 C303.3,49.7 298,52.7 291,52.7 C280,52.7 271.3,44.5 271.3,32.5 L271.3,32.5 Z M300.1,29.5 C299.4,23.8 296.2,19.2 290.3,19.2 C284.9,19.2 281,23.5 280.1,29.5 L300.1,29.5 L300.1,29.5 Z" id="Shape"></path>
                <path d="M316.2,12.8 L325.4,12.8 L333.3,39.5 L342,12.6 L349.7,12.6 L358.4,39.5 L366.4,12.8 L375.4,12.8 L362.6,52 L354.6,52 L345.9,25.4 L337,52 L329,52 L316.2,12.8 L316.2,12.8 Z" id="Shape"></path>
                <path d="M381.9,46.6 L385.8,40.5 C390.1,43.6 394.7,45.3 398.6,45.3 C402.4,45.3 404.7,43.7 404.7,41 L404.7,40.8 C404.7,37.8 400.6,36.7 396,35.4 C390.3,33.8 383.9,31.5 383.9,23.9 L383.9,23.9 C383.9,16.5 390,12.1 397.8,12.1 C402.7,12.1 408,13.7 412.1,16.5 L408.5,22.9 C404.7,20.6 400.8,19.3 397.5,19.3 C394.1,19.3 392.1,20.9 392.1,23.1 L392.1,23.3 C392.1,26.3 396.4,27.4 401,28.9 C406.7,30.7 413.1,33.3 413.1,40.2 L413.1,40.4 C413.1,48.6 406.7,52.7 398.7,52.7 C392.9,52.5 386.7,50.5 381.9,46.6 L381.9,46.6 Z" id="Shape"></path>
                <path d="M425.2,12.8 L434.1,12.8 L434.1,21.7 C436.6,15.8 441,11.9 447.9,12.2 L447.9,21.7 L447.4,21.7 C439.5,21.7 434.1,26.8 434.1,37.1 L434.1,51.9 L425.2,51.9 L425.2,12.8 L425.2,12.8 Z" id="Shape"></path>
                <path d="M455.5,32.5 L455.5,32.5 C455.5,21.2 464.4,12 476.3,12 C488.3,12 497,21 497,32.2 L497,32.4 C497,43.5 488.1,52.7 476.2,52.7 C464.3,52.7 455.5,43.6 455.5,32.5 L455.5,32.5 Z M488.1,32.5 L488.1,32.5 C488.1,25.5 483.2,19.9 476.1,19.9 C468.9,19.9 464.3,25.5 464.3,32.4 L464.3,32.6 C464.3,39.3 469.2,45.1 476.1,45.1 C483.5,44.8 488.1,39.2 488.1,32.5 L488.1,32.5 Z" id="Shape"></path>
                <path d="M507.1,32.5 L507.1,32.5 C507.1,21.2 516,12 527.9,12 C539.9,12 548.6,21 548.6,32.2 L548.6,32.4 C548.6,43.5 539.7,52.7 527.8,52.7 C516,52.7 507.1,43.6 507.1,32.5 L507.1,32.5 Z M539.8,32.5 L539.8,32.5 C539.8,25.5 534.9,19.9 527.8,19.9 C520.6,19.9 516,25.5 516,32.4 L516,32.6 C516,39.3 520.9,45.1 527.8,45.1 C535.2,44.8 539.8,39.2 539.8,32.5 L539.8,32.5 Z" id="Shape"></path>
                <path d="M561.1,12.8 L570,12.8 L570,18.7 C572.5,15.3 575.9,12 581.8,12 C587.4,12 591.3,14.8 593.4,18.9 C596.5,14.8 600.6,12 606.5,12 C615,12 620.1,17.4 620.1,26.9 L620.1,51.8 L611.2,51.8 L611.2,29.7 C611.2,23.5 608.2,20.2 603.3,20.2 C598.4,20.2 594.9,23.6 594.9,29.9 L594.9,51.9 L586,51.9 L586,29.8 C586,23.7 583,20.3 578.1,20.3 C573.2,20.3 569.7,23.9 569.7,30 L569.7,52 L560.8,52 L560.8,12.8 L561.1,12.8 L561.1,12.8 Z" id="Shape"></path>
            </g>
        </g>
    </g>
</svg>