<?xml version="1.0" encoding="UTF-8" standalone="no"?>
<svg width="789px" height="108px" viewBox="0 0 789 108" version="1.1" xmlns="http://www.w3.org/2000/svg" xmlns:xlink="http://www.w3.org/1999/xlink" xmlns:sketch="http://www.bohemiancoding.com/sketch/ns">
    <!-- Generator: Sketch 3.2.2 (9983) - http://www.bohemiancoding.com/sketch -->
    <title>Group</title>
    <desc>Created with Sketch.</desc>
    <defs></defs>
    <g id="Page-1" stroke="none" stroke-width="1" fill="none" fill-rule="evenodd" sketch:type="MSPage">
        <g id="logo-short" sketch:type="MSLayerGroup">
            <g id="Group" sketch:type="MSShapeGroup">
                <path d="M76.2,42.8 L67.7,67.7 L54.3,49.5 L40.8,68.3 L29.4,41.8 L16.7,41.8 C15.7,44.9 15,48.2 14.8,51.6 L22.9,51.6 L38.6,88.1 L54.4,66.2 L70.9,88.7 L83.6,51.6 L97.8,51.6 C97.8,52.4 97.9,53.1 97.9,53.9 C97.9,78.1 78.2,97.9 53.9,97.9 C29.7,97.9 9.9,78.2 9.9,53.9 C9.9,29.6 29.6,9.9 53.9,9.9 C62.6,9.9 70.7,12.5 77.6,16.8 L86.4,11 C77.4,4.1 66.1,0.1 53.9,0.1 C24.2,0.1 0.1,24.2 0.1,53.9 C0.1,83.6 24.2,107.7 53.9,107.7 C83.6,107.7 107.7,83.6 107.7,53.9 C107.7,50.1 107.3,46.3 106.5,42.7 C106.5,42.8 76.2,42.8 76.2,42.8 L76.2,42.8 Z" id="Shape" fill="#ffffff"></path>
                <g transform="translate(178.000000, 27.000000)" fill="#ffffff">
                    <path d="M27,31.8 L40.1,31.8 L40.1,41.4 C36.9,43.7 32.5,45.3 27.7,45.3 C17.2,45.3 10.3,37.5 10.3,27 L10.3,26.9 C10.3,17.1 17.5,8.8 26.9,8.8 C33.4,8.8 37.3,10.9 41.3,14.3 L47,7.5 C41.7,3 36.2,0.5 27.3,0.5 C11.8,0.5 0.8,12.7 0.8,27 L0.8,27.1 C0.8,42.1 11.4,53.5 27.4,53.5 C36.5,53.5 43.7,49.8 48.8,45.5 L48.8,24 L27,24 L27,31.8 L27,31.8 Z" id="Shape"></path>
                    <path d="M121.6,17.7 L121.6,17.6 C121.6,13.1 120.1,9.3 117.3,6.5 C114,3.3 108.9,1.4 102.5,1.4 L79.6,1.4 L79.6,52.7 L88.6,52.7 L88.6,34.8 L100,34.8 L112.6,52.7 L123.3,52.7 L109.4,33.3 C116.5,31.2 121.6,26.1 121.6,17.7 L121.6,17.7 Z M88.7,26.8 L88.7,9.6 L101.8,9.6 C108.5,9.6 112.4,12.6 112.4,18.1 L112.4,18.2 C112.4,23.4 108.3,26.8 101.8,26.8 L88.7,26.8 L88.7,26.8 Z" id="Shape"></path>
                    <path d="M169.9,1 L147.3,52.7 L156.5,52.7 L161.8,40.3 L186.1,40.3 L191.3,52.7 L200.8,52.7 L178.3,1 L169.9,1 L169.9,1 Z M165.1,32.3 L173.9,11.8 L182.8,32.3 L165.1,32.3 L165.1,32.3 Z" id="Shape"></path>
                    <path d="M247.7,22.9 C237.8,20.6 235.5,18.8 235.5,14.8 L235.5,14.7 C235.5,11.3 238.6,8.6 243.9,8.6 C248.6,8.6 253.2,10.4 257.8,13.9 L262.6,7.1 C257.4,2.9 251.5,0.6 244,0.6 C233.8,0.6 226.5,6.7 226.5,15.5 L226.5,15.6 C226.5,25.1 232.7,28.3 243.6,30.9 C253.1,33.1 255.2,35.1 255.2,38.7 L255.2,38.8 C255.2,42.6 251.7,45.3 246.1,45.3 C239.8,45.3 234.8,42.9 229.9,38.6 L224.5,45.1 C230.7,50.6 238.1,53.3 245.9,53.3 C256.7,53.3 264.2,47.6 264.2,38 L264.2,37.9 C264.1,29.4 258.5,25.5 247.7,22.9 L247.7,22.9 Z" id="Shape"></path>
                    <path d="M312.9,22.9 C303,20.6 300.7,18.8 300.7,14.8 L300.7,14.7 C300.7,11.3 303.8,8.6 309.1,8.6 C313.8,8.6 318.4,10.4 323,13.9 L327.8,7.1 C322.6,2.9 316.7,0.6 309.2,0.6 C299,0.6 291.7,6.7 291.7,15.5 L291.7,15.6 C291.7,25.1 297.9,28.3 308.8,30.9 C318.3,33.1 320.4,35.1 320.4,38.7 L320.4,38.8 C320.4,42.6 316.9,45.3 311.3,45.3 C305,45.3 300,42.9 295.1,38.6 L289.7,45.1 C295.9,50.6 303.3,53.3 311.1,53.3 C321.9,53.3 329.4,47.6 329.4,38 L329.4,37.9 C329.4,29.4 323.8,25.5 312.9,22.9 L312.9,22.9 Z" id="Shape"></path>
                    <path d="M408.1,39.4 L395.5,1.2 L387.9,1.2 L375.2,39.4 L363,1.3 L353.3,1.3 L371.1,53 L378.9,53 L391.5,16.1 L404.1,53 L412,53 L429.8,1.3 L420.3,1.3 L408.1,39.4 Z" id="Shape"></path>
                    <rect id="Rectangle-path" x="458.6" y="1.3" width="9" height="51.3"></rect>
                    <path d="M542.3,17.7 L542.3,17.6 C542.3,13.1 540.8,9.3 538,6.5 C534.7,3.3 529.6,1.4 523.2,1.4 L500.3,1.4 L500.3,52.7 L509.3,52.7 L509.3,34.8 L520.6,34.8 L533.2,52.7 L543.9,52.7 L530,33.3 C537.3,31.2 542.3,26.1 542.3,17.7 L542.3,17.7 Z M509.4,26.8 L509.4,9.6 L522.5,9.6 C529.2,9.6 533.1,12.6 533.1,18.1 L533.1,18.2 C533.1,23.4 529,26.8 522.5,26.8 L509.4,26.8 L509.4,26.8 Z" id="Shape"></path>
                    <path d="M581.5,44.6 L581.5,30.8 L607.2,30.8 L607.2,22.7 L581.5,22.7 L581.5,9.4 L610.5,9.4 L610.5,1.3 L572.5,1.3 L572.5,52.7 L610.9,52.7 L610.9,44.6 L581.5,44.6 Z" id="Shape"></path>
                </g>
            </g>
        </g>
    </g>
</svg>
